<svg xmlns="http://www.w3.org/2000/svg" fill="none" viewBox="0 0 40 40" height="40" width="40">
<path fill="#45443F" d="M36.828 30.134C36.5424 29.8921 36.1732 29.7721 35.8 29.8H32.8C33.9502 29.1547 34.9246 28.2372 35.638 27.128C35.7453 26.9518 35.8082 26.7522 35.8215 26.5464C35.8347 26.3405 35.7978 26.1345 35.714 25.946C35.688 25.884 35.658 25.816 35.622 25.746C36.2832 24.7677 36.7773 23.6863 37.084 22.546C37.3506 21.2793 37.4114 19.978 37.264 18.692C37.2322 18.4108 37.1264 18.1431 36.9574 17.9161C36.7884 17.6891 36.5623 17.511 36.302 17.4C35.702 14.616 34.878 14.156 34.606 14C34.4153 13.8898 34.2021 13.8245 33.9824 13.8089C33.7627 13.7933 33.5423 13.8279 33.338 13.91C31.794 14.496 31.788 15.89 31.784 17.012C31.784 17.228 31.784 17.45 31.766 17.67C31.4946 17.7577 31.2476 17.9081 31.0451 18.1089C30.8425 18.3097 30.69 18.5554 30.6 18.826C30.5116 19.0864 30.3942 19.3359 30.25 19.57C30.05 19.472 29.85 19.386 29.662 19.31C29.3803 19.2039 29.0697 19.2039 28.788 19.31L25.856 20.432C25.5773 20.5383 25.3451 20.7394 25.2 21C25.092 21.2 25 21.4 24.898 21.6L24.762 21.548V15.148C24.7609 14.7922 24.6189 14.4514 24.3669 14.2002C24.115 13.949 23.7738 13.808 23.418 13.808H9.718C9.36224 13.808 9.021 13.949 8.76906 14.2002C8.51713 14.4514 8.37506 14.7922 8.374 15.148V15.674C7.9089 15.572 7.43416 15.5204 6.958 15.52C2.664 15.52 2.664 20.172 2.664 21.7C2.664 25.128 4.35 27.344 6.96 27.344C7.57417 27.3401 8.18549 27.2602 8.78 27.106C9.15785 28.1522 9.80329 29.081 10.652 29.8H6.508C6.31837 29.7837 6.12739 29.8051 5.94611 29.8631C5.76484 29.9211 5.59689 30.0146 5.452 30.138C5.30615 30.2632 5.18652 30.416 5.10002 30.5876C5.01352 30.7592 4.96185 30.9463 4.948 31.138V32.28C4.948 33.68 6.302 34.764 8.032 34.764H34.248C35.978 34.764 37.334 33.674 37.334 32.28V31.122C37.3194 30.932 37.2672 30.7468 37.1803 30.5771C37.0935 30.4075 36.9737 30.2569 36.828 30.134ZM6.958 25.8C5.236 25.8 4.2 24.264 4.2 21.698C4.2 19.4 4.536 17.048 6.98 17.06C7.45386 17.059 7.92539 17.1263 8.38 17.26V18.044C7.9254 17.8746 7.44308 17.7918 6.958 17.8C4.958 17.8 4.958 20.144 4.958 21.694C4.958 23.798 5.71 25.054 6.97 25.054C7.44888 25.0492 7.92476 24.9778 8.384 24.842V24.856C8.38612 25.1048 8.40282 25.3532 8.434 25.6C7.9524 25.7286 7.45647 25.7958 6.958 25.8ZM8.374 19.774V23.226C7.92481 23.4121 7.44418 23.5105 6.958 23.516C6.772 23.516 6.49 22.792 6.49 21.7C6.49 19.346 6.806 19.346 6.966 19.346H7.056C7.52917 19.3441 7.99072 19.4925 8.374 19.77V19.774ZM33.246 17.014C33.246 15.874 33.318 15.512 33.758 15.312L33.89 15.252L33.988 15.358C34.138 15.52 34.436 15.958 34.736 17.122L34.798 17.358L34.554 17.372C34.206 17.392 33.842 17.424 33.468 17.466L33.246 17.49V17.014ZM31.2 20.362C31.4374 20.0006 31.6269 19.61 31.764 19.2C31.8017 19.0948 31.8674 19.0018 31.9542 18.9313C32.0409 18.8608 32.1453 18.8154 32.256 18.8C32.292 18.8 32.332 18.784 32.376 18.778L32.576 18.744C33.5754 18.5747 34.5865 18.4838 35.6 18.472H35.64C35.7354 18.4675 35.8292 18.4985 35.9031 18.5591C35.977 18.6197 36.0258 18.7055 36.04 18.8C36.1736 19.9487 36.1229 21.1113 35.89 22.244C35.6705 23.0761 35.3295 23.8713 34.878 24.604L34.77 24.78L34.672 24.598C33.817 23.0119 32.6382 21.6232 31.212 20.522L31.126 20.456L31.2 20.362ZM26.51 21.832L29.232 20.792C31.85 21.864 33.592 25.01 34.264 26.426C33.904 27.004 32.888 28.25 30.464 29.174C29.5912 29.5174 28.6714 29.7264 27.736 29.794H27C26.6564 29.7796 26.3159 29.7231 25.986 29.626C25.962 29.516 25.93 29.368 25.894 29.184C25.622 27.8 25.158 24.35 26.504 21.832H26.51ZM24.684 30H21.884C22.2476 29.7429 22.5828 29.4479 22.884 29.12C23.4474 29.3923 24.0328 29.6165 24.634 29.79C24.654 29.862 24.672 29.93 24.684 30ZM23.4 22.576C23.7175 22.7778 24.0579 22.9409 24.414 23.062C24.024 24.7495 23.944 26.4939 24.178 28.21C23.5471 27.9717 22.9521 27.6473 22.41 27.246C21.5762 26.5547 20.8649 25.7278 20.306 24.8C20.2943 24.7708 20.2924 24.7386 20.3007 24.7083C20.309 24.6779 20.327 24.6511 20.352 24.632L20.382 24.606C21.162 23.9334 21.9924 23.3216 22.866 22.776L22.944 22.728C23.008 22.686 23.074 22.644 23.162 22.592C23.196 22.567 23.2365 22.5522 23.2787 22.5493C23.3208 22.5465 23.3629 22.5557 23.4 22.576ZM20.2 22.616C19.784 21.604 19.734 21.05 19.774 20.856C20.104 20.744 20.256 20.834 20.95 21.718C21.006 21.792 21.062 21.866 21.122 21.94C20.786 22.162 20.476 22.388 20.182 22.616H20.2ZM10.044 25.966C9.96045 25.6026 9.91818 25.2309 9.918 24.858V15.344H23.224V21.02C23.0136 21.0259 22.8061 21.0706 22.612 21.152C22.482 20.998 22.358 20.846 22.24 20.694C21.59 19.86 20.698 18.716 19.12 19.318C18.9143 19.3942 18.7274 19.5136 18.5718 19.6682C18.4162 19.8227 18.2956 20.0089 18.218 20.214C17.908 21.014 18.15 22.238 18.954 23.948C18.8165 24.1995 18.7469 24.4824 18.7522 24.769C18.7574 25.0555 18.8373 25.3358 18.984 25.582C19.6344 26.6749 20.4678 27.6477 21.448 28.458L21.562 28.544C20.6662 29.3536 19.5014 29.8013 18.294 29.8H14.836C13.7194 29.8047 12.6349 29.4268 11.763 28.7292C10.8911 28.0316 10.2844 27.0564 10.044 25.966ZM35.47 32.28C35.47 32.528 34.984 32.902 34.248 32.902H8.032C7.298 32.902 6.81 32.528 6.81 32.28V31.658H35.47V32.28Z"></path>
<path fill="#45443F" d="M17.164 10.784C17.0413 10.9049 16.9439 11.0491 16.8776 11.2081C16.8113 11.3671 16.7775 11.5377 16.778 11.71C16.7833 11.8146 16.7673 11.9191 16.731 12.0173C16.6947 12.1155 16.6387 12.2052 16.5666 12.2811C16.4945 12.357 16.4077 12.4174 16.3115 12.4587C16.2153 12.5 16.1117 12.5213 16.007 12.5213C15.9023 12.5213 15.7987 12.5 15.7025 12.4587C15.6063 12.4174 15.5195 12.357 15.4474 12.2811C15.3753 12.2052 15.3194 12.1155 15.283 12.0173C15.2467 11.9191 15.2307 11.8146 15.236 11.71C15.2319 11.0018 15.4979 10.3188 15.98 9.8C16.1031 9.67819 16.2007 9.53319 16.2674 9.37339C16.3341 9.21359 16.3684 9.04215 16.3684 8.869C16.3684 8.69585 16.3341 8.52442 16.2674 8.36462C16.2007 8.20482 16.1031 8.05981 15.98 7.938C15.4887 7.41322 15.2192 6.71883 15.228 6C15.2227 5.89545 15.2387 5.79091 15.275 5.69273C15.3114 5.59455 15.3673 5.50479 15.4394 5.4289C15.5115 5.35302 15.5983 5.29259 15.6945 5.2513C15.7907 5.21001 15.8943 5.18872 15.999 5.18872C16.1037 5.18872 16.2073 5.21001 16.3035 5.2513C16.3997 5.29259 16.4865 5.35302 16.5586 5.4289C16.6307 5.50479 16.6867 5.59455 16.723 5.69273C16.7593 5.79091 16.7753 5.89545 16.77 6C16.7692 6.17231 16.803 6.34302 16.8693 6.50206C16.9356 6.66111 17.0331 6.80526 17.156 6.926C17.6399 7.45142 17.9091 8.13917 17.9106 8.85345C17.9121 9.56772 17.6457 10.2566 17.164 10.784Z"></path>
<path fill="#45443F" d="M13.736 10.784C13.6129 10.9046 13.5153 11.0487 13.449 11.2078C13.3827 11.3669 13.349 11.5377 13.35 11.71C13.3553 11.8146 13.3393 11.9191 13.303 12.0173C13.2667 12.1155 13.2107 12.2052 13.1386 12.2811C13.0665 12.357 12.9797 12.4174 12.8835 12.4587C12.7873 12.5 12.6837 12.5213 12.579 12.5213C12.4743 12.5213 12.3707 12.5 12.2745 12.4587C12.1783 12.4174 12.0915 12.357 12.0194 12.2811C11.9473 12.2052 11.8914 12.1155 11.855 12.0173C11.8187 11.9191 11.8027 11.8146 11.808 11.71C11.8037 11.0018 12.0698 10.3187 12.552 9.8C12.6753 9.67833 12.7732 9.53337 12.84 9.37355C12.9068 9.21373 12.9413 9.04223 12.9413 8.869C12.9413 8.69578 12.9068 8.52427 12.84 8.36445C12.7732 8.20463 12.6753 8.05968 12.552 7.938C12.0598 7.41378 11.7902 6.71902 11.8 6C11.7947 5.89545 11.8107 5.79091 11.847 5.69273C11.8834 5.59455 11.9393 5.50479 12.0114 5.4289C12.0835 5.35302 12.1703 5.29259 12.2665 5.2513C12.3627 5.21001 12.4663 5.18872 12.571 5.18872C12.6757 5.18872 12.7793 5.21001 12.8755 5.2513C12.9717 5.29259 13.0585 5.35302 13.1306 5.4289C13.2027 5.50479 13.2587 5.59455 13.295 5.69273C13.3313 5.79091 13.3473 5.89545 13.342 6C13.3408 6.17237 13.3743 6.34322 13.4407 6.50233C13.507 6.66143 13.6047 6.80553 13.728 6.926C14.2123 7.4512 14.4818 8.13904 14.4833 8.85344C14.4848 9.56785 14.2181 10.2568 13.736 10.784Z"></path>
<path fill="#45443F" d="M20.6 10.784C20.4733 10.9038 20.3724 11.0483 20.3036 11.2086C20.2348 11.3689 20.1995 11.5416 20.2 11.716C20.2053 11.8205 20.1893 11.9251 20.153 12.0233C20.1166 12.1214 20.0607 12.2112 19.9886 12.2871C19.9165 12.363 19.8297 12.4234 19.7335 12.4647C19.6373 12.506 19.5337 12.5273 19.429 12.5273C19.3243 12.5273 19.2207 12.506 19.1245 12.4647C19.0283 12.4234 18.9415 12.363 18.8694 12.2871C18.7973 12.2112 18.7413 12.1214 18.705 12.0233C18.6687 11.9251 18.6527 11.8205 18.658 11.716C18.651 11.0059 18.9165 10.3201 19.4 9.8C19.5233 9.67832 19.6212 9.53337 19.688 9.37354C19.7548 9.21372 19.7892 9.04222 19.7892 8.869C19.7892 8.69577 19.7548 8.52427 19.688 8.36445C19.6212 8.20463 19.5233 8.05967 19.4 7.938C18.9103 7.41275 18.6436 6.71798 18.656 6C18.656 5.79525 18.7373 5.59889 18.8821 5.45411C19.0269 5.30933 19.2233 5.228 19.428 5.228C19.6327 5.228 19.8291 5.30933 19.9739 5.45411C20.1187 5.59889 20.2 5.79525 20.2 6C20.1983 6.17244 20.2317 6.34342 20.298 6.50259C20.3644 6.66176 20.4623 6.80581 20.586 6.926C21.0711 7.45045 21.3417 8.13786 21.3443 8.85227C21.3469 9.56668 21.0813 10.256 20.6 10.784Z"></path>
</svg>
